<svg width="9" height="13" viewBox="0 0 9 13" fill="none" xmlns="http://www.w3.org/2000/svg">
<path d="M5.82273 11.7067C5.50153 12.0158 5.13399 12.3068 4.75075 12.5609C4.70832 12.5894 4.66044 12.6096 4.60986 12.6203C4.55928 12.6309 4.50699 12.6319 4.45602 12.6231C4.40504 12.6143 4.35638 12.5959 4.31284 12.569C4.2693 12.5421 4.23174 12.5071 4.20232 12.4662C4.1729 12.4253 4.15221 12.3792 4.14143 12.3306C4.13065 12.2819 4.13 12.2317 4.13951 12.1829C4.14902 12.134 4.16851 12.0874 4.19686 12.0458C4.22521 12.0042 4.26185 11.9684 4.30468 11.9404C5.12466 11.4017 5.81092 10.6961 6.31463 9.87384C6.81835 9.05161 7.12714 8.13293 7.21906 7.18314C7.31099 6.23335 7.18377 5.27579 6.84647 4.37855C6.50917 3.48131 5.97006 2.66644 5.2675 1.99189C4.97137 1.71257 4.65024 1.45879 4.30782 1.23346C4.26362 1.20601 4.22563 1.17031 4.19609 1.12847C4.16656 1.08664 4.14609 1.03954 4.1359 0.989957C4.12571 0.940378 4.12601 0.889339 4.13678 0.839873C4.14755 0.790407 4.16857 0.743525 4.19859 0.702014C4.22861 0.660503 4.26702 0.625211 4.31154 0.598236C4.35605 0.57126 4.40576 0.553153 4.45771 0.54499C4.50966 0.536826 4.56279 0.538774 4.61394 0.550717C4.66509 0.562659 4.71322 0.584353 4.75546 0.614509C5.14813 0.87536 5.51409 1.16335 5.82352 1.45964C7.23906 2.81861 8.0343 4.66172 8.0343 6.58354C8.0343 8.50536 7.23906 10.3485 5.82352 11.7075L5.82273 11.7067ZM4.27326 10.0217C3.89066 10.3841 3.45197 10.6875 2.97275 10.9211C2.92669 10.9454 2.87603 10.9606 2.82376 10.9657C2.77149 10.9708 2.71867 10.9659 2.66844 10.9511C2.61822 10.9362 2.5716 10.9119 2.53135 10.8795C2.49109 10.8471 2.45803 10.8072 2.43411 10.7623C2.41019 10.7174 2.39591 10.6683 2.3921 10.618C2.3883 10.5677 2.39505 10.5172 2.41195 10.4694C2.42886 10.4217 2.45558 10.3777 2.49053 10.34C2.52548 10.3023 2.56795 10.2718 2.61542 10.2502C3.02155 10.0523 3.39346 9.79544 3.71803 9.48871C4.19634 9.02969 4.55454 8.46839 4.76324 7.85081C4.97195 7.23324 5.02523 6.57698 4.91872 5.93582C4.8122 5.29466 4.54893 4.68686 4.15047 4.16224C3.75202 3.63762 3.22973 3.21112 2.62641 2.91769C2.58012 2.89548 2.53885 2.86471 2.50499 2.82714C2.47112 2.78957 2.44533 2.74595 2.42909 2.69877C2.41285 2.6516 2.40648 2.60182 2.41035 2.55227C2.41422 2.50273 2.42826 2.45441 2.45165 2.4101C2.47504 2.36578 2.50733 2.32634 2.54666 2.29404C2.58598 2.26175 2.63157 2.23723 2.6808 2.22191C2.73003 2.20658 2.78193 2.20075 2.83352 2.20475C2.8851 2.20875 2.93535 2.2225 2.98138 2.2452C3.69536 2.59249 4.31345 3.09725 4.78498 3.71811C5.25652 4.33898 5.56808 5.05828 5.69413 5.81705C5.82018 6.57582 5.75714 7.35247 5.51016 8.08333C5.26318 8.8142 4.8393 9.47848 4.27326 10.0217ZM2.31228 8.73255C2.03427 9.00018 1.69186 9.22032 1.32747 9.37336C1.23232 9.41205 1.12513 9.41318 1.02912 9.37651C0.933113 9.33983 0.856036 9.2683 0.814597 9.17744C0.77316 9.08657 0.770703 8.98368 0.807757 8.89109C0.844812 8.79849 0.918393 8.72365 1.01255 8.68279C1.28942 8.56711 1.54178 8.40356 1.75705 8.20029C1.97831 7.98795 2.15383 7.73585 2.27358 7.45838C2.39333 7.18091 2.45497 6.88351 2.45497 6.58317C2.45497 6.28283 2.39333 5.98543 2.27358 5.70796C2.15383 5.43049 1.97831 5.17838 1.75705 4.96604C1.54451 4.7648 1.29467 4.60346 1.0204 4.49033C0.972555 4.47087 0.929207 4.44249 0.89287 4.40684C0.856533 4.37118 0.82793 4.32896 0.808718 4.28261C0.789505 4.23626 0.780065 4.18672 0.780946 4.13684C0.781827 4.08697 0.793011 4.03776 0.813848 3.99206C0.834687 3.94637 0.864765 3.9051 0.902339 3.87065C0.939914 3.83619 0.984238 3.80924 1.03274 3.79135C1.08125 3.77347 1.13297 3.765 1.18491 3.76644C1.23685 3.76788 1.28797 3.7792 1.33532 3.79975C1.69923 3.95056 2.03058 4.16534 2.31228 4.43303C2.60644 4.71537 2.83979 5.05058 2.99899 5.4195C3.15819 5.78843 3.24013 6.18384 3.24013 6.58317C3.24013 6.98249 3.15819 7.37791 2.99899 7.74683C2.83979 8.11575 2.60644 8.4502 2.31228 8.73255Z" fill="#1D1D1C"/>
</svg>
