<svg width="29" height="19" viewBox="0 0 29 19" fill="none" xmlns="http://www.w3.org/2000/svg">
<path d="M13.5932 16.6729C13.6614 16.7305 13.7343 16.7881 13.806 16.8445C12.3762 17.7961 10.6964 18.3024 8.97891 18.2996C7.61884 18.2996 6.27765 17.9813 5.06261 17.3701C3.84757 16.759 2.7924 15.872 1.98151 14.7801C1.17061 13.6882 0.626487 12.4217 0.39266 11.0819C0.158833 9.7421 0.24179 8.36615 0.634896 7.06413C1.028 5.76211 1.72035 4.57015 2.65656 3.58359C3.59276 2.59703 4.74685 1.84325 6.02651 1.38253C7.30617 0.921816 8.67589 0.766957 10.0261 0.930338C11.3763 1.09372 12.6696 1.57081 13.8024 2.32344C13.7319 2.38338 13.6614 2.43862 13.6085 2.49974C12.5904 3.37821 11.7735 4.46577 11.2135 5.68836C10.6535 6.91095 10.3636 8.23985 10.3634 9.58458C10.3637 10.9283 10.6522 12.2564 11.2093 13.4791C11.7665 14.7019 12.5794 15.791 13.5932 16.6729ZM19.7531 0.868396C17.9666 0.868395 16.3082 1.40434 14.9284 2.32344C14.9989 2.38338 15.0694 2.43862 15.1223 2.49974C16.1404 3.37821 16.9573 4.46577 17.5173 5.68836C18.0773 6.91095 18.3672 8.23985 18.3674 9.58458C18.3666 10.9282 18.078 12.2561 17.5208 13.4789C16.9637 14.7016 16.151 15.7907 15.1376 16.6729C15.0694 16.7305 14.9966 16.7881 14.9249 16.8445C16.3545 17.7964 18.0344 18.3028 19.7519 18.2996C20.8966 18.3 22.0302 18.075 23.0879 17.6372C24.1456 17.1994 25.1067 16.5575 25.9162 15.7482C26.7258 14.9389 27.3679 13.978 27.806 12.9204C28.244 11.8628 28.4694 10.7293 28.4693 9.58458C28.469 7.273 27.5505 5.05618 25.916 3.42165C24.2815 1.78712 22.0647 0.868707 19.7531 0.868396ZM14.3654 2.73716C13.3271 3.5508 12.4878 4.59032 11.9113 5.77678C11.3348 6.96324 11.0361 8.26546 11.0381 9.58458C11.0358 10.9039 11.3343 12.2064 11.9108 13.3931C12.4874 14.5798 13.3268 15.6195 14.3654 16.4332C15.4037 15.6193 16.243 14.5796 16.8195 13.3929C17.396 12.2063 17.6947 10.9039 17.6927 9.58458C17.6947 8.26546 17.396 6.96324 16.8195 5.77678C16.243 4.59032 15.4037 3.5508 14.3654 2.73716Z" fill="#1D1D1C"/>
</svg>
